<?xml version="1.0" encoding="utf-8"?>
<svg width="24" height="24" viewBox="0 0 24 24" xmlns="http://www.w3.org/2000/svg">
  <g id="IlDuko_Black" transform="matrix(0.25555, 0, 0, 0.25555, 0.995987, 0.188369)" style="">
    <path d="M37.11,45.67c.12,1.46.24,2.92.35,4.38L38,57.89c0,.24,0,.48,0,.77a.32.32,0,0,1-.19-.3c-.32-1.44-.65-2.87-1-4.31-.4-1.81-1.41-5.77-1.8-7.58ZM46.48,42l3.6-1.92c.36,0-1.45.34,0,.56a14.5,14.5,0,0,0,4.6-.47,12.89,12.89,0,0,0,3.51-1,1.9,1.9,0,0,1,1-.19c3.12.25,6.23.51,9.3.86s5.83.77,8.61,1.34A30.78,30.78,0,0,1,85,43.62a9.36,9.36,0,0,1,1,.62,1.09,1.09,0,0,1,.51,1.45,27.45,27.45,0,0,0-1.76,7.84,43.08,43.08,0,0,0-.27,6.1c0,.27-.14.46-.53.66-2.67,1.39-2.59,3.55.15,4.29.4.11.55.26.57.53.15,2.15.25,4.31.49,6.45a55,55,0,0,0,1.08,7c.09.33-.23.41-.61.54L72.4,83.38,54.07,89.3l-9.83,3.18a2.79,2.79,0,0,1-1.14.15L27.18,91.05c-.49,0-.72-.16-.79-.47-.27-1.09-.59-2.17-.88-3.25-.55-2-1.1-4.07-1.64-6.11-.39-1.46-.76-2.93-1.15-4.39-.76-2.85-1.54-5.7-2.3-8.55-.4-1.52-.78-3-1.18-4.56-.62-2.4-1.25-4.79-1.88-7.19-.3-1.15-.61-2.3-.95-3.45A1.12,1.12,0,0,1,16.75,52l3.87.25c-.14.16-.26.31-.21.5C21,55,21.6,57.12,22.18,59.3c.71,2.64,1.4,5.28,2.1,7.92L26.08,74q1,3.94,2.09,7.88c.59,2.22,1.17,4.43,1.75,6.65.06.24.24.34.61.37l3.1.3c2.68.27,5.37.53,8,.81.54,0,.63,0,.58-.34-.08-.46-.09-.92-.15-1.38-.33-2.44-.58-4.88-.87-7.32-.2-1.73-.42-3.46-.62-5.19-.28-2.5-.63-5-1-7.49,0-.12-.1-.25.07-.39.15,0,.14.13.16.2.45,1.73.92,3.46,1.37,5.2.61,2.36,1.22,4.71,1.81,7.08q1.11,4.42,2.16,8.87c.08.33.26.34.75.18l9.94-3.22Q68.64,82.13,81.35,78c.57-.19.75-.36.68-.72-.27-1.54-.54-3.09-.68-4.66-.19-2-.4-4-.5-6a.52.52,0,0,0-.32-.43c-3.14-1.71-3.23-4.22-.27-6.7.19-.16.33-.31.33-.5,0-.86,0-1.72.07-2.58a37.85,37.85,0,0,1,1.85-10.4.34.34,0,0,0-.21-.47,20,20,0,0,0-3.91-1.43,60.38,60.38,0,0,0-6.64-1.38c-4-.64-8.14-1-12.33-1.37a1.57,1.57,0,0,0-.71.1,23.09,23.09,0,0,1-8,1.27A12.39,12.39,0,0,1,46.27,42"/>
    <path d="M56,75a17.08,17.08,0,0,0,1.38-1c2.23-2,1.73-4.9-1.06-6.08-3.21-1.36-7.8-.31-9.66,2.22-.08.11-.1.23-.26.31s-.14-.05-.14-.1c.35-1.94,1.74-3.58,4.77-4.72a11.23,11.23,0,0,1,8.6.2c3.46,1.69,3.64,5,.37,7.53A9.38,9.38,0,0,1,56,75Z"/>
    <path d="M43.73,50.58a2.51,2.51,0,0,1,.39-1.44c1-1.84,4-3,6.71-2.59A4,4,0,0,1,54,48.37c.64,1.12.42,2.3-.76,3.5a5.61,5.61,0,0,1-2.55,1.38c.25-.24.52-.49.76-.74a2.24,2.24,0,0,0-.92-3.81,5.78,5.78,0,0,0-6.42,1.56C44,50.36,44,50.49,43.73,50.58Z"/>
    <path d="M71.49,59.68c1.69-1,2.21-2,1.88-3.16-.28-1-1.8-1.75-3.41-1.71-2,0-3.93,1.14-4.32,2.48,0,.12,0,.24-.13.35s-.16-.06-.17-.12c-.42-1.6,1.48-3.44,4.2-4.07a6.28,6.28,0,0,1,5.2.9c1.94,1.55.64,4.18-2.58,5.23A1.15,1.15,0,0,1,71.49,59.68Z"/>
    <path d="M75.21,71.31c.78-1,.66-1.7-.37-2a2.52,2.52,0,0,0-1.52.13,2.12,2.12,0,0,0-1,.86c-.35-.62.59-1.43,1.53-1.69,1.32-.36,2.54,0,2.9.8S76.25,71.16,75.21,71.31Z"/>
    <path class="cls-2" d="M47.46,30.72s1.7,5.11,4.11,5.24,2-1.85,2-1.85a13.69,13.69,0,0,0-.85-4c-.75-1.9-2.23-10.63-3-13.16a41.21,41.21,0,0,1-1.07-6.13c-.18-.77-1.29-6.42-1.93-8.06a3.61,3.61,0,0,0-3-2.65C42.32,0,41-.46,40.62,1.5s-4.17,15-4.69,19.31l-.51,4.33-4-7.16c-2.09-3.76-3.91-7.63-5.05-8.86s-2-1.43-2.87-.67-1.06.81-1,1.62,1.84,15,1.35,18.87-.22,5.48-2.11,6.17-4.52-.77-6-2S7.24,26,5.7,25,3.89,23.52,2.84,23.7s-3,.59-2.83,2,.73,1.37,1.12,2.14S12.71,49.22,14,51s2.58,4.1,5.66,3.14S54.31,39.87,54.31,39.87s.95-.5.72-1.22-3.46.46-3.46.46L25.92,49.64s-4.07,2.18-6.49,1.55-7.74-9.53-7.74-9.53L7.14,32.8A34.82,34.82,0,0,1,5,28.88c-.09-.58,9.57,7.43,12.53,9s4.72,2.91,7,1.43,2.34-1.58,2.38-2.89-1.35-18-1.35-19.4-.05-2.08.29-1.4,5.05,9,6.29,10.58,1.93,2.52,3.38,2.6,3.25-.51,3.86-1.87S42.5,11.76,42.72,10.6s.47-4.11.63-3.29S47.46,30.72,47.46,30.72Z"/>
  </g>
</svg>